<mxfile host="app.diagrams.net" modified="2024-05-29T23:55:44.035Z" agent="Mozilla/5.0 (Windows NT 10.0; Win64; x64) AppleWebKit/537.36 (KHTML, like Gecko) Chrome/123.0.0.0 Safari/537.36 OPR/109.0.0.0" etag="aTYWlyoJwTU7YkgTwCYr" version="24.4.10" type="github">
  <diagram name="PÃ¡gina-1" id="9zHkvIzlyGTX3vlSqpLJ">
    <mxGraphModel dx="839" dy="485" grid="0" gridSize="10" guides="1" tooltips="1" connect="1" arrows="1" fold="1" page="1" pageScale="1" pageWidth="827" pageHeight="1169" background="#000000" math="0" shadow="0">
      <root>
        <mxCell id="0" />
        <mxCell id="1" parent="0" />
        <mxCell id="YtZLa9yv99hNc0snX0IW-2" style="edgeStyle=orthogonalEdgeStyle;rounded=0;orthogonalLoop=1;jettySize=auto;html=1;exitX=0.5;exitY=1;exitDx=0;exitDy=0;labelBackgroundColor=none;strokeColor=#0B4D6A;fontColor=default;" parent="1" source="YtZLa9yv99hNc0snX0IW-1" edge="1">
          <mxGeometry relative="1" as="geometry">
            <mxPoint x="414" y="120" as="targetPoint" />
          </mxGeometry>
        </mxCell>
        <mxCell id="YtZLa9yv99hNc0snX0IW-1" value="I" style="ellipse;whiteSpace=wrap;html=1;aspect=fixed;labelBackgroundColor=none;fillColor=#09555B;strokeColor=#BAC8D3;fontColor=#EEEEEE;" parent="1" vertex="1">
          <mxGeometry x="384" y="20" width="60" height="60" as="geometry" />
        </mxCell>
        <mxCell id="YtZLa9yv99hNc0snX0IW-6" style="edgeStyle=orthogonalEdgeStyle;rounded=0;orthogonalLoop=1;jettySize=auto;html=1;exitX=0.5;exitY=1;exitDx=0;exitDy=0;labelBackgroundColor=none;strokeColor=#0B4D6A;fontColor=default;" parent="1" source="YtZLa9yv99hNc0snX0IW-4" target="YtZLa9yv99hNc0snX0IW-5" edge="1">
          <mxGeometry relative="1" as="geometry" />
        </mxCell>
        <mxCell id="YtZLa9yv99hNc0snX0IW-4" value="ganMax=CT=ganAcu=artGanMax= 0" style="rounded=0;whiteSpace=wrap;html=1;labelBackgroundColor=none;fillColor=#09555B;strokeColor=#BAC8D3;fontColor=#EEEEEE;" parent="1" vertex="1">
          <mxGeometry x="266" y="120" width="296" height="40" as="geometry" />
        </mxCell>
        <mxCell id="YtZLa9yv99hNc0snX0IW-12" style="edgeStyle=orthogonalEdgeStyle;rounded=0;orthogonalLoop=1;jettySize=auto;html=1;exitX=0.5;exitY=1;exitDx=0;exitDy=0;entryX=0.5;entryY=0;entryDx=0;entryDy=0;labelBackgroundColor=none;strokeColor=#0B4D6A;fontColor=default;" parent="1" source="YtZLa9yv99hNc0snX0IW-5" target="YtZLa9yv99hNc0snX0IW-7" edge="1">
          <mxGeometry relative="1" as="geometry" />
        </mxCell>
        <mxCell id="YtZLa9yv99hNc0snX0IW-5" value="art" style="verticalLabelPosition=middle;verticalAlign=middle;html=1;shape=trapezoid;perimeter=trapezoidPerimeter;whiteSpace=wrap;size=0.23;arcSize=10;flipV=1;labelPosition=center;align=center;labelBackgroundColor=none;fillColor=#09555B;strokeColor=#BAC8D3;fontColor=#EEEEEE;" parent="1" vertex="1">
          <mxGeometry x="364" y="190" width="100" height="30" as="geometry" />
        </mxCell>
        <mxCell id="YtZLa9yv99hNc0snX0IW-102" style="edgeStyle=orthogonalEdgeStyle;rounded=0;orthogonalLoop=1;jettySize=auto;html=1;labelBackgroundColor=none;strokeColor=#0B4D6A;fontColor=default;entryX=0.5;entryY=0;entryDx=0;entryDy=0;" parent="1" source="YtZLa9yv99hNc0snX0IW-7" target="YtZLa9yv99hNc0snX0IW-99" edge="1">
          <mxGeometry relative="1" as="geometry">
            <mxPoint x="414" y="1060" as="targetPoint" />
          </mxGeometry>
        </mxCell>
        <mxCell id="YtZLa9yv99hNc0snX0IW-7" value="art != 0" style="swimlane;whiteSpace=wrap;html=1;startSize=20;labelBackgroundColor=none;fillColor=#09555B;strokeColor=#BAC8D3;fontColor=#EEEEEE;" parent="1" vertex="1">
          <mxGeometry x="94" y="250" width="640" height="780" as="geometry" />
        </mxCell>
        <mxCell id="YtZLa9yv99hNc0snX0IW-13" value="artACT = art" style="rounded=0;whiteSpace=wrap;html=1;labelBackgroundColor=none;fillColor=#09555B;strokeColor=#BAC8D3;fontColor=#EEEEEE;" parent="YtZLa9yv99hNc0snX0IW-7" vertex="1">
          <mxGeometry x="260" y="50" width="120" height="30" as="geometry" />
        </mxCell>
        <mxCell id="YtZLa9yv99hNc0snX0IW-15" value="art == artACT" style="swimlane;whiteSpace=wrap;html=1;startSize=20;labelBackgroundColor=none;fillColor=#09555B;strokeColor=#BAC8D3;fontColor=#EEEEEE;" parent="YtZLa9yv99hNc0snX0IW-7" vertex="1">
          <mxGeometry x="19" y="110" width="600" height="640" as="geometry" />
        </mxCell>
        <mxCell id="YtZLa9yv99hNc0snX0IW-37" style="edgeStyle=orthogonalEdgeStyle;rounded=0;orthogonalLoop=1;jettySize=auto;html=1;exitX=0.5;exitY=1;exitDx=0;exitDy=0;entryX=0.5;entryY=0;entryDx=0;entryDy=0;labelBackgroundColor=none;strokeColor=#0B4D6A;fontColor=default;" parent="YtZLa9yv99hNc0snX0IW-15" source="YtZLa9yv99hNc0snX0IW-16" target="YtZLa9yv99hNc0snX0IW-25" edge="1">
          <mxGeometry relative="1" as="geometry">
            <Array as="points">
              <mxPoint x="299" y="100" />
              <mxPoint x="179" y="100" />
            </Array>
          </mxGeometry>
        </mxCell>
        <mxCell id="YtZLa9yv99hNc0snX0IW-16" value="D, CAV, PC, PV" style="verticalLabelPosition=middle;verticalAlign=middle;html=1;shape=trapezoid;perimeter=trapezoidPerimeter;whiteSpace=wrap;size=0.23;arcSize=10;flipV=1;labelPosition=center;align=center;labelBackgroundColor=none;fillColor=#09555B;strokeColor=#BAC8D3;fontColor=#EEEEEE;" parent="YtZLa9yv99hNc0snX0IW-15" vertex="1">
          <mxGeometry x="231" y="55" width="136" height="30" as="geometry" />
        </mxCell>
        <mxCell id="YtZLa9yv99hNc0snX0IW-19" value="" style="endArrow=classic;html=1;rounded=0;labelBackgroundColor=none;strokeColor=#0B4D6A;fontColor=default;" parent="YtZLa9yv99hNc0snX0IW-15" edge="1">
          <mxGeometry width="50" height="50" relative="1" as="geometry">
            <mxPoint x="298" y="20" as="sourcePoint" />
            <mxPoint x="298" y="50" as="targetPoint" />
          </mxGeometry>
        </mxCell>
        <mxCell id="YtZLa9yv99hNc0snX0IW-29" style="edgeStyle=orthogonalEdgeStyle;rounded=0;orthogonalLoop=1;jettySize=auto;html=1;exitX=0;exitY=0.5;exitDx=0;exitDy=0;entryX=0.5;entryY=0;entryDx=0;entryDy=0;labelBackgroundColor=none;strokeColor=#0B4D6A;fontColor=default;" parent="YtZLa9yv99hNc0snX0IW-15" source="YtZLa9yv99hNc0snX0IW-21" target="YtZLa9yv99hNc0snX0IW-24" edge="1">
          <mxGeometry relative="1" as="geometry" />
        </mxCell>
        <mxCell id="YtZLa9yv99hNc0snX0IW-34" style="edgeStyle=orthogonalEdgeStyle;rounded=0;orthogonalLoop=1;jettySize=auto;html=1;entryX=0.5;entryY=0;entryDx=0;entryDy=0;exitX=1;exitY=0.5;exitDx=0;exitDy=0;labelBackgroundColor=none;strokeColor=#0B4D6A;fontColor=default;" parent="YtZLa9yv99hNc0snX0IW-15" source="YtZLa9yv99hNc0snX0IW-21" target="YtZLa9yv99hNc0snX0IW-33" edge="1">
          <mxGeometry relative="1" as="geometry" />
        </mxCell>
        <mxCell id="YtZLa9yv99hNc0snX0IW-21" value="ganMax==0" style="rhombus;whiteSpace=wrap;html=1;labelBackgroundColor=none;fillColor=#09555B;strokeColor=#BAC8D3;fontColor=#EEEEEE;" parent="YtZLa9yv99hNc0snX0IW-15" vertex="1">
          <mxGeometry x="131" y="240" width="95" height="60" as="geometry" />
        </mxCell>
        <mxCell id="YtZLa9yv99hNc0snX0IW-31" style="edgeStyle=orthogonalEdgeStyle;rounded=0;orthogonalLoop=1;jettySize=auto;html=1;exitX=0.5;exitY=1;exitDx=0;exitDy=0;entryX=0.5;entryY=0;entryDx=0;entryDy=0;labelBackgroundColor=none;strokeColor=#0B4D6A;fontColor=default;" parent="YtZLa9yv99hNc0snX0IW-15" source="YtZLa9yv99hNc0snX0IW-24" target="YtZLa9yv99hNc0snX0IW-30" edge="1">
          <mxGeometry relative="1" as="geometry" />
        </mxCell>
        <mxCell id="YtZLa9yv99hNc0snX0IW-24" value="ganMax = ganAcu" style="rounded=0;whiteSpace=wrap;html=1;labelBackgroundColor=none;fillColor=#09555B;strokeColor=#BAC8D3;fontColor=#EEEEEE;" parent="YtZLa9yv99hNc0snX0IW-15" vertex="1">
          <mxGeometry x="21" y="300" width="110" height="30" as="geometry" />
        </mxCell>
        <mxCell id="YtZLa9yv99hNc0snX0IW-25" value="CT = C * CAV" style="rounded=0;whiteSpace=wrap;html=1;labelBackgroundColor=none;fillColor=#09555B;strokeColor=#BAC8D3;fontColor=#EEEEEE;" parent="YtZLa9yv99hNc0snX0IW-15" vertex="1">
          <mxGeometry x="118.5" y="120" width="120" height="30" as="geometry" />
        </mxCell>
        <mxCell id="YtZLa9yv99hNc0snX0IW-32" style="edgeStyle=orthogonalEdgeStyle;rounded=0;orthogonalLoop=1;jettySize=auto;html=1;entryX=0.5;entryY=0;entryDx=0;entryDy=0;labelBackgroundColor=none;strokeColor=#0B4D6A;fontColor=default;" parent="YtZLa9yv99hNc0snX0IW-15" source="YtZLa9yv99hNc0snX0IW-27" target="YtZLa9yv99hNc0snX0IW-21" edge="1">
          <mxGeometry relative="1" as="geometry" />
        </mxCell>
        <mxCell id="YtZLa9yv99hNc0snX0IW-27" value="ganAcu = (V * CAV) - CT" style="rounded=0;whiteSpace=wrap;html=1;labelBackgroundColor=none;fillColor=#09555B;strokeColor=#BAC8D3;fontColor=#EEEEEE;" parent="YtZLa9yv99hNc0snX0IW-15" vertex="1">
          <mxGeometry x="103.5" y="180" width="150" height="30" as="geometry" />
        </mxCell>
        <mxCell id="YtZLa9yv99hNc0snX0IW-28" style="edgeStyle=orthogonalEdgeStyle;rounded=0;orthogonalLoop=1;jettySize=auto;html=1;entryX=0.5;entryY=0;entryDx=0;entryDy=0;labelBackgroundColor=none;strokeColor=#0B4D6A;fontColor=default;" parent="YtZLa9yv99hNc0snX0IW-15" edge="1">
          <mxGeometry relative="1" as="geometry">
            <mxPoint x="177.5" y="150" as="sourcePoint" />
            <mxPoint x="177.5" y="180" as="targetPoint" />
          </mxGeometry>
        </mxCell>
        <mxCell id="YtZLa9yv99hNc0snX0IW-30" value="artGanMax = artACT" style="rounded=0;whiteSpace=wrap;html=1;labelBackgroundColor=none;fillColor=#09555B;strokeColor=#BAC8D3;fontColor=#EEEEEE;" parent="YtZLa9yv99hNc0snX0IW-15" vertex="1">
          <mxGeometry x="16" y="350" width="120" height="30" as="geometry" />
        </mxCell>
        <mxCell id="YtZLa9yv99hNc0snX0IW-36" style="edgeStyle=orthogonalEdgeStyle;rounded=0;orthogonalLoop=1;jettySize=auto;html=1;entryX=0.5;entryY=0;entryDx=0;entryDy=0;exitX=0;exitY=0.5;exitDx=0;exitDy=0;labelBackgroundColor=none;strokeColor=#0B4D6A;fontColor=default;" parent="YtZLa9yv99hNc0snX0IW-15" source="YtZLa9yv99hNc0snX0IW-33" target="YtZLa9yv99hNc0snX0IW-35" edge="1">
          <mxGeometry relative="1" as="geometry" />
        </mxCell>
        <mxCell id="YtZLa9yv99hNc0snX0IW-39" style="edgeStyle=orthogonalEdgeStyle;rounded=0;orthogonalLoop=1;jettySize=auto;html=1;entryX=0.5;entryY=0;entryDx=0;entryDy=0;exitX=1;exitY=0.5;exitDx=0;exitDy=0;labelBackgroundColor=none;strokeColor=#0B4D6A;fontColor=default;" parent="YtZLa9yv99hNc0snX0IW-15" source="YtZLa9yv99hNc0snX0IW-33" target="YtZLa9yv99hNc0snX0IW-38" edge="1">
          <mxGeometry relative="1" as="geometry">
            <Array as="points">
              <mxPoint x="496" y="340" />
            </Array>
          </mxGeometry>
        </mxCell>
        <mxCell id="YtZLa9yv99hNc0snX0IW-33" value="art==artGanMax" style="rhombus;whiteSpace=wrap;html=1;labelBackgroundColor=none;fillColor=#09555B;strokeColor=#BAC8D3;fontColor=#EEEEEE;" parent="YtZLa9yv99hNc0snX0IW-15" vertex="1">
          <mxGeometry x="296" y="300" width="117" height="80" as="geometry" />
        </mxCell>
        <mxCell id="YtZLa9yv99hNc0snX0IW-35" value="ganMax += ganAcu" style="rounded=0;whiteSpace=wrap;html=1;labelBackgroundColor=none;fillColor=#09555B;strokeColor=#BAC8D3;fontColor=#EEEEEE;" parent="YtZLa9yv99hNc0snX0IW-15" vertex="1">
          <mxGeometry x="191" y="380" width="110" height="30" as="geometry" />
        </mxCell>
        <mxCell id="YtZLa9yv99hNc0snX0IW-85" style="edgeStyle=orthogonalEdgeStyle;rounded=0;orthogonalLoop=1;jettySize=auto;html=1;entryX=0.5;entryY=0;entryDx=0;entryDy=0;exitX=0;exitY=0.5;exitDx=0;exitDy=0;labelBackgroundColor=none;strokeColor=#0B4D6A;fontColor=default;" parent="YtZLa9yv99hNc0snX0IW-15" source="YtZLa9yv99hNc0snX0IW-38" target="YtZLa9yv99hNc0snX0IW-40" edge="1">
          <mxGeometry relative="1" as="geometry" />
        </mxCell>
        <mxCell id="YtZLa9yv99hNc0snX0IW-38" value="ganAcu &amp;gt; ganMax" style="rhombus;whiteSpace=wrap;html=1;labelBackgroundColor=none;fillColor=#09555B;strokeColor=#BAC8D3;fontColor=#EEEEEE;" parent="YtZLa9yv99hNc0snX0IW-15" vertex="1">
          <mxGeometry x="436" y="370" width="120" height="80" as="geometry" />
        </mxCell>
        <mxCell id="YtZLa9yv99hNc0snX0IW-86" style="edgeStyle=orthogonalEdgeStyle;rounded=0;orthogonalLoop=1;jettySize=auto;html=1;entryX=0.5;entryY=0;entryDx=0;entryDy=0;labelBackgroundColor=none;strokeColor=#0B4D6A;fontColor=default;" parent="YtZLa9yv99hNc0snX0IW-15" source="YtZLa9yv99hNc0snX0IW-40" target="YtZLa9yv99hNc0snX0IW-84" edge="1">
          <mxGeometry relative="1" as="geometry" />
        </mxCell>
        <mxCell id="YtZLa9yv99hNc0snX0IW-40" value="ganMax = ganAcu" style="rounded=0;whiteSpace=wrap;html=1;labelBackgroundColor=none;fillColor=#09555B;strokeColor=#BAC8D3;fontColor=#EEEEEE;" parent="YtZLa9yv99hNc0snX0IW-15" vertex="1">
          <mxGeometry x="316" y="440" width="120" height="30" as="geometry" />
        </mxCell>
        <mxCell id="YtZLa9yv99hNc0snX0IW-84" value="artGanMax = artACT" style="rounded=0;whiteSpace=wrap;html=1;labelBackgroundColor=none;fillColor=#09555B;strokeColor=#BAC8D3;fontColor=#EEEEEE;" parent="YtZLa9yv99hNc0snX0IW-15" vertex="1">
          <mxGeometry x="316" y="500" width="120" height="30" as="geometry" />
        </mxCell>
        <mxCell id="YtZLa9yv99hNc0snX0IW-87" value="" style="endArrow=none;html=1;rounded=0;labelBackgroundColor=none;strokeColor=#0B4D6A;fontColor=default;" parent="YtZLa9yv99hNc0snX0IW-15" edge="1">
          <mxGeometry width="50" height="50" relative="1" as="geometry">
            <mxPoint x="247" y="570" as="sourcePoint" />
            <mxPoint x="477" y="570" as="targetPoint" />
          </mxGeometry>
        </mxCell>
        <mxCell id="YtZLa9yv99hNc0snX0IW-89" value="" style="endArrow=none;html=1;rounded=0;labelBackgroundColor=none;strokeColor=#0B4D6A;fontColor=default;" parent="YtZLa9yv99hNc0snX0IW-15" edge="1">
          <mxGeometry width="50" height="50" relative="1" as="geometry">
            <mxPoint x="76" y="590" as="sourcePoint" />
            <mxPoint x="76" y="380" as="targetPoint" />
          </mxGeometry>
        </mxCell>
        <mxCell id="YtZLa9yv99hNc0snX0IW-91" value="" style="endArrow=none;html=1;rounded=0;labelBackgroundColor=none;strokeColor=#0B4D6A;fontColor=default;" parent="YtZLa9yv99hNc0snX0IW-15" edge="1">
          <mxGeometry width="50" height="50" relative="1" as="geometry">
            <mxPoint x="247" y="570" as="sourcePoint" />
            <mxPoint x="247" y="410" as="targetPoint" />
          </mxGeometry>
        </mxCell>
        <mxCell id="YtZLa9yv99hNc0snX0IW-90" value="" style="endArrow=none;html=1;rounded=0;entryX=1;entryY=0.5;entryDx=0;entryDy=0;labelBackgroundColor=none;strokeColor=#0B4D6A;fontColor=default;" parent="YtZLa9yv99hNc0snX0IW-15" edge="1">
          <mxGeometry width="50" height="50" relative="1" as="geometry">
            <mxPoint x="566" y="550" as="sourcePoint" />
            <mxPoint x="566" y="410" as="targetPoint" />
          </mxGeometry>
        </mxCell>
        <mxCell id="YtZLa9yv99hNc0snX0IW-93" value="" style="endArrow=none;html=1;rounded=0;labelBackgroundColor=none;strokeColor=#0B4D6A;fontColor=default;" parent="YtZLa9yv99hNc0snX0IW-15" edge="1">
          <mxGeometry width="50" height="50" relative="1" as="geometry">
            <mxPoint x="376" y="550" as="sourcePoint" />
            <mxPoint x="566" y="550" as="targetPoint" />
          </mxGeometry>
        </mxCell>
        <mxCell id="YtZLa9yv99hNc0snX0IW-95" value="" style="endArrow=none;html=1;rounded=0;labelBackgroundColor=none;strokeColor=#0B4D6A;fontColor=default;" parent="YtZLa9yv99hNc0snX0IW-15" edge="1">
          <mxGeometry width="50" height="50" relative="1" as="geometry">
            <mxPoint x="477" y="570" as="sourcePoint" />
            <mxPoint x="477" y="550" as="targetPoint" />
          </mxGeometry>
        </mxCell>
        <mxCell id="YtZLa9yv99hNc0snX0IW-96" value="" style="endArrow=none;html=1;rounded=0;labelBackgroundColor=none;strokeColor=#0B4D6A;fontColor=default;" parent="YtZLa9yv99hNc0snX0IW-15" edge="1">
          <mxGeometry width="50" height="50" relative="1" as="geometry">
            <mxPoint x="77" y="590" as="sourcePoint" />
            <mxPoint x="367" y="590" as="targetPoint" />
          </mxGeometry>
        </mxCell>
        <mxCell id="YtZLa9yv99hNc0snX0IW-98" value="" style="endArrow=none;html=1;rounded=0;exitX=0.5;exitY=1;exitDx=0;exitDy=0;labelBackgroundColor=none;strokeColor=#0B4D6A;fontColor=default;" parent="YtZLa9yv99hNc0snX0IW-15" source="YtZLa9yv99hNc0snX0IW-7" edge="1">
          <mxGeometry width="50" height="50" relative="1" as="geometry">
            <mxPoint x="307" y="660" as="sourcePoint" />
            <mxPoint x="300.24" y="590" as="targetPoint" />
          </mxGeometry>
        </mxCell>
        <mxCell id="YtZLa9yv99hNc0snX0IW-17" value="" style="endArrow=classic;html=1;rounded=0;labelBackgroundColor=none;strokeColor=#0B4D6A;fontColor=default;" parent="YtZLa9yv99hNc0snX0IW-7" edge="1">
          <mxGeometry width="50" height="50" relative="1" as="geometry">
            <mxPoint x="319" y="20" as="sourcePoint" />
            <mxPoint x="319" y="50" as="targetPoint" />
          </mxGeometry>
        </mxCell>
        <mxCell id="YtZLa9yv99hNc0snX0IW-18" value="" style="endArrow=classic;html=1;rounded=0;labelBackgroundColor=none;strokeColor=#0B4D6A;fontColor=default;" parent="YtZLa9yv99hNc0snX0IW-7" edge="1">
          <mxGeometry width="50" height="50" relative="1" as="geometry">
            <mxPoint x="319" y="80" as="sourcePoint" />
            <mxPoint x="319" y="110" as="targetPoint" />
          </mxGeometry>
        </mxCell>
        <mxCell id="YtZLa9yv99hNc0snX0IW-92" value="" style="endArrow=none;html=1;rounded=0;exitX=1;exitY=0.5;exitDx=0;exitDy=0;labelBackgroundColor=none;strokeColor=#0B4D6A;fontColor=default;" parent="1" source="YtZLa9yv99hNc0snX0IW-38" edge="1">
          <mxGeometry width="50" height="50" relative="1" as="geometry">
            <mxPoint x="530" y="810" as="sourcePoint" />
            <mxPoint x="680" y="770" as="targetPoint" />
          </mxGeometry>
        </mxCell>
        <mxCell id="YtZLa9yv99hNc0snX0IW-94" value="" style="endArrow=none;html=1;rounded=0;entryX=0.5;entryY=1;entryDx=0;entryDy=0;labelBackgroundColor=none;strokeColor=#0B4D6A;fontColor=default;" parent="1" target="YtZLa9yv99hNc0snX0IW-84" edge="1">
          <mxGeometry width="50" height="50" relative="1" as="geometry">
            <mxPoint x="489" y="910" as="sourcePoint" />
            <mxPoint x="480" y="900" as="targetPoint" />
          </mxGeometry>
        </mxCell>
        <mxCell id="YtZLa9yv99hNc0snX0IW-97" value="" style="endArrow=none;html=1;rounded=0;labelBackgroundColor=none;strokeColor=#0B4D6A;fontColor=default;" parent="1" edge="1">
          <mxGeometry width="50" height="50" relative="1" as="geometry">
            <mxPoint x="480" y="950" as="sourcePoint" />
            <mxPoint x="480" y="930" as="targetPoint" />
          </mxGeometry>
        </mxCell>
        <mxCell id="YtZLa9yv99hNc0snX0IW-103" value="" style="swimlane;startSize=0;strokeColor=#BAC8D3;fontColor=#EEEEEE;fillColor=#09555B;" parent="1" vertex="1">
          <mxGeometry x="70" y="10" width="690" height="1150" as="geometry" />
        </mxCell>
        <mxCell id="YtZLa9yv99hNc0snX0IW-100" value="F" style="ellipse;whiteSpace=wrap;html=1;aspect=fixed;labelBackgroundColor=none;fillColor=#09555B;strokeColor=#BAC8D3;fontColor=#EEEEEE;" parent="YtZLa9yv99hNc0snX0IW-103" vertex="1">
          <mxGeometry x="319" y="1090" width="50" height="50" as="geometry" />
        </mxCell>
        <mxCell id="YtZLa9yv99hNc0snX0IW-99" value="&quot;El numero del articulo que recaudo mas ganancias: &quot;, artGanMax" style="shape=trapezoid;perimeter=trapezoidPerimeter;whiteSpace=wrap;html=1;fixedSize=1;labelBackgroundColor=none;fillColor=#09555B;strokeColor=#BAC8D3;fontColor=#EEEEEE;" parent="YtZLa9yv99hNc0snX0IW-103" vertex="1">
          <mxGeometry x="144" y="1040" width="400" height="30" as="geometry" />
        </mxCell>
        <mxCell id="YtZLa9yv99hNc0snX0IW-101" style="edgeStyle=orthogonalEdgeStyle;rounded=0;orthogonalLoop=1;jettySize=auto;html=1;exitX=0.5;exitY=1;exitDx=0;exitDy=0;labelBackgroundColor=none;strokeColor=#0B4D6A;fontColor=default;" parent="YtZLa9yv99hNc0snX0IW-103" source="YtZLa9yv99hNc0snX0IW-99" target="YtZLa9yv99hNc0snX0IW-100" edge="1">
          <mxGeometry relative="1" as="geometry" />
        </mxCell>
      </root>
    </mxGraphModel>
  </diagram>
</mxfile>
